<svg xmlns="http://www.w3.org/2000/svg" xmlns:xlink="http://www.w3.org/1999/xlink" width="327" height="345" viewBox="0 0 327 345">
  <defs>
    <clipPath id="clip-path">
      <rect id="Rectangle_18826" data-name="Rectangle 18826" width="327" height="345" transform="translate(97.873 317)" fill="#e06f00"/>
    </clipPath>
  </defs>
  <g id="logo" transform="translate(-97.873 -317)" clip-path="url(#clip-path)">
    <g id="Group_55721" data-name="Group 55721" transform="translate(176.336 353.944)">
      <path id="Path_24624" data-name="Path 24624" d="M272.17,359.947c0-1.394,0-2.365,0-3.336-.01-11.084-.092-22.169.027-33.252.026-2.424-.706-3-3.052-2.992-21.808.086-43.616.051-65.423.051h-3.446c-.526-7.5.733-14.37,4.386-20.678a32.956,32.956,0,0,1,12.358-12.209,23.129,23.129,0,0,1,11.807-3.191c13.425.019,26.849-.27,40.274-.279,2.438,0,3.027-.769,3-3.087-.211-20.814-.777-41.639-.294-62.438.345-14.876,7.18-26.771,20.5-34.163,7.393-4.1,15.579-5.867,24.4-6.733v3.272q0,69.749.031,139.5a31.1,31.1,0,0,1-3.056,13.827c-6.692,13.8-17.717,21.9-32.759,24.577C278.188,359.3,275.415,359.533,272.17,359.947Z" transform="translate(-146.659 -177.639)" fill="#e06f00"/>
      <path id="Path_24625" data-name="Path 24625" d="M146.864,360.019a48.46,48.46,0,0,1-16.388-2.759c-15.377-5.267-25.351-15.6-28.975-31.669a13.516,13.516,0,0,1-.269-2.946q-.019-71.343-.007-142.688c0-.708.06-1.415.092-2.112,21.556-.738,41.6,14.953,45.518,35.563a14.49,14.49,0,0,1,.109,2.692q-.034,70.4-.078,140.8C146.864,357.864,146.864,358.832,146.864,360.019Z" transform="translate(-101.221 -177.722)" fill="#e06f00"/>
      <g id="Group_55722" data-name="Group 55722" transform="translate(9.264 193.455)">
        <path id="Path_24626" data-name="Path 24626" d="M278.4,600.73c-.32-1.734-.6-3.28-.879-4.772.181-.221.267-.439.408-.481,7.892-2.389,11.261-9.331,10.909-16.635-.3-6.2-.035-12.433-.011-18.65a2.9,2.9,0,0,1,.238-.682h5.279v20.268H307.7c0-3.095-.045-6.123.011-9.149.081-4.295.89-8.4,3.371-12.035a13.3,13.3,0,0,1,11.841-6.3c4.055.073,8.112-.035,12.167.028,6.709.1,11.1,4.55,11.188,11.27.026,1.892.005,3.785,0,5.677,0,8.5-4.86,14.287-13.286,15.669a41.3,41.3,0,0,1-6.443.528c-10.093.054-20.188.071-30.28-.018-1.836-.016-2.637.536-3.263,2.3A18.946,18.946,0,0,1,278.4,600.73Zm37.118-38.684c3.263,0,6.286-.061,9.306.014,5.131.127,8.395,3.381,8.45,8.533.03,2.83-.23,5.663-.358,8.487,4.792-.592,7.754-3.806,7.768-8.493.007-2.518.037-5.038-.01-7.556-.06-3.184-1.842-5.056-4.991-5.1-4.767-.068-9.536-.077-14.3.008C318.642,557.985,316.767,559.448,315.513,562.046Zm-2.482,17.806c3.5,0,6.294.2,9.046-.043,4.947-.43,8.029-7.121,5.147-11.081a3.4,3.4,0,0,0-2.292-1.035c-1.962-.148-3.95.056-5.914-.079-2.687-.184-4.477,1.135-5.026,3.507A71.709,71.709,0,0,0,313.032,579.852Z" transform="translate(-191.448 -543.151)" fill="#e06f00"/>
        <path id="Path_24627" data-name="Path 24627" d="M145.456,578.247c-1.675.628-2.737,1.348-3.817,1.374a79.963,79.963,0,0,1-12.141-.159c-6.569-.851-10.992-6.809-11.143-14.219-.14-6.854,4.8-13.337,11.478-14.381,4.042-.632,8.206-.482,12.688-.7.067-.8.176-2.08.3-3.51h5.449v5.126c0,6.4.035,12.794-.013,19.19-.016,2.222.739,3.445,3.163,3.141a33.854,33.854,0,0,0,5.317-.615c3.672-1.08,4.86-2.9,4.861-6.722q.007-12.027,0-24.055v-3.083h5.6v4.554c0,7.118-.293,14.25.072,21.349.494,9.61-6.381,13.624-13.588,14.082C150.687,579.809,147.476,580.372,145.456,578.247Zm-2.786-4.294c0-4.906.125-9.571-.084-14.222-.055-1.221-1.049-3.358-1.781-3.434-4.575-.474-9.377-1.619-13.508,1.593-3.1,2.408-3.93,5.78-3.186,9.451.613,3.021,2.1,6.075,5.342,6.477C133.854,574.363,138.372,573.954,142.67,573.954Z" transform="translate(-118.353 -537.337)" fill="#e06f00"/>
        <path id="Path_24628" data-name="Path 24628" d="M231.092,603.857c-.251-.276-.451-.392-.477-.541-.252-1.4-.475-2.8-.743-4.434,6.077-1.9,9.914-5.836,11.151-12.745-1.139.5-1.9.811-2.64,1.157a14.629,14.629,0,1,1-10.406-27.252c8.523-2.405,17.274,2.649,18.263,11.451a65.511,65.511,0,0,1-.638,18.7C244.295,597.437,238.462,602.217,231.092,603.857Zm1.014-20.669a9.1,9.1,0,1,0-9.087-8.968A8.961,8.961,0,0,0,232.106,583.188Z" transform="translate(-163.898 -546.436)" fill="#e06f00"/>
        <path id="Path_24629" data-name="Path 24629" d="M125.886,544.161a4.384,4.384,0,0,1-.345-8.76,4.665,4.665,0,0,1,4.625,4.332A4.735,4.735,0,0,1,125.886,544.161Z" transform="translate(-119.748 -535.39)" fill="#e06f00"/>
        <path id="Path_24630" data-name="Path 24630" d="M154.162,539.842a4.39,4.39,0,0,1-8.779-.008,4.39,4.39,0,1,1,8.779.008Z" transform="translate(-130.766 -535.388)" fill="#e06f00"/>
      </g>
    </g>
    <text id="لأننا_نفهم_الرياضة" data-name="لأننا نفهم الرياضة" transform="translate(259.873 639)" fill="#e06f00" font-size="25" font-family="Almarai-Bold, Almarai" font-weight="700"><tspan x="-92" y="0">لأننا نفهم الرياضة</tspan></text>
  </g>
</svg>
