<svg id="calendar_org" xmlns="http://www.w3.org/2000/svg" width="16" height="16" viewBox="0 0 16 16">
  <path id="Path_282306" data-name="Path 282306" d="M11.781,37.594A4.219,4.219,0,1,0,16,41.813,4.223,4.223,0,0,0,11.781,37.594Zm1.875,4.688H11.781a.469.469,0,0,1-.469-.469V39.938a.469.469,0,0,1,.938,0v1.406h1.406a.469.469,0,0,1,0,.938Zm1.375-10.812A.464.464,0,0,0,14.563,31H12.219v1.406a.469.469,0,0,1-.937,0V31H9.406v1.406a.469.469,0,0,1-.937,0V31H6.594v1.406a.469.469,0,0,1-.937,0V31H3.781v1.406a.469.469,0,0,1-.937,0V31H.469A.464.464,0,0,0,0,31.469v2.344H15.031Zm0,0" transform="translate(0 -30.031)" fill="#e06f00"/>
  <path id="Path_282307" data-name="Path 282307" d="M7.063,9.406h.113a5.174,5.174,0,0,1,.6-.937H7.063a.469.469,0,0,1,0-.937H8a.468.468,0,0,1,.428.281A5.131,5.131,0,0,1,11.75,6.594h-.937a.469.469,0,0,1,0-.937h.938a.469.469,0,0,1,0,.938,5.133,5.133,0,0,1,3.281,1.182V4.719H0v8.906a.469.469,0,0,0,.469.469H7.163a4.98,4.98,0,0,1-.335-3.822.462.462,0,0,1-.234-.4A.469.469,0,0,1,7.063,9.406Zm0-3.75H8a.469.469,0,0,1,0,.938H7.063a.469.469,0,0,1,0-.937ZM4.25,12.219H3.313a.469.469,0,0,1,0-.937H4.25a.469.469,0,0,1,0,.938Zm0-1.875H3.313a.469.469,0,0,1,0-.937H4.25a.469.469,0,0,1,0,.938Zm0-1.875H3.313a.469.469,0,0,1,0-.937H4.25a.469.469,0,0,1,0,.938Zm0-1.875H3.313a.469.469,0,0,1,0-.937H4.25a.469.469,0,0,1,0,.938ZM3.781.469a.469.469,0,0,0-.937,0v.5h.938Zm2.813,0a.469.469,0,0,0-.937,0v.5h.938Zm2.813,0a.469.469,0,0,0-.937,0v.5h.938Zm2.813,0a.469.469,0,0,0-.937,0v.5h.938Zm0,0" fill="#e06f00"/>
</svg>
