<svg xmlns="http://www.w3.org/2000/svg" width="46.889" height="46.889" viewBox="0 0 46.889 46.889">
  <g id="discount_code_graphic" transform="translate(-1 -1)">
    <g id="_14-Gift" data-name="14-Gift" transform="translate(1 1)">
      <path id="Path_25824" data-name="Path 25824" d="M39.756,25H53.369V50.713a3.025,3.025,0,0,1-3.025,3.025H39V25Z" transform="translate(-10.262 -6.85)" fill="#ffad39"/>
      <path id="Path_25825" data-name="Path 25825" d="M20.369,25V53.738H9.025A3.025,3.025,0,0,1,6,50.713V25Z" transform="translate(-2.219 -6.85)" fill="#ffad39"/>
      <path id="Path_25826" data-name="Path 25826" d="M18.394,13v9.075H2.513A1.517,1.517,0,0,1,1,20.563v-6.05A1.517,1.517,0,0,1,2.513,13Z" transform="translate(-1 -3.925)" fill="#febd55"/>
      <path id="Path_25827" data-name="Path 25827" d="M57.394,14.513v6.05a1.517,1.517,0,0,1-1.513,1.513H40V13H55.882A1.517,1.517,0,0,1,57.394,14.513Z" transform="translate(-10.506 -3.925)" fill="#febd55"/>
      <path id="Path_25828" data-name="Path 25828" d="M34.563,10.513v1.513H27V10.513A1.517,1.517,0,0,1,28.513,9H33.05a1.517,1.517,0,0,1,1.513,1.513Z" transform="translate(-7.337 -2.95)" fill="#cb3541"/>
      <path id="Path_25829" data-name="Path 25829" d="M33.05,10.756H28.513a1.513,1.513,0,0,1-1.3-.756,1.494,1.494,0,0,0-.211.756v1.513h7.563V10.756A1.494,1.494,0,0,0,34.352,10,1.513,1.513,0,0,1,33.05,10.756Z" transform="translate(-7.337 -3.194)" fill="#a81e29"/>
      <path id="Path_25830" data-name="Path 25830" d="M22.613,9.781v1.513H11.269A2.222,2.222,0,0,1,9,9.025C9,6,12.781,6,12.781,6a14.836,14.836,0,0,1,9.831,3.781Z" transform="translate(-2.95 -2.219)" fill="#e03e3e"/>
      <path id="Path_25831" data-name="Path 25831" d="M17.781,1c6.05,0,6.05,7.563,6.05,7.563A14.836,14.836,0,0,0,14,4.781S14,1,17.781,1Z" transform="translate(-4.169 -1)" fill="#cb3541"/>
      <path id="Path_25832" data-name="Path 25832" d="M37,8.563S37,1,43.05,1c3.781,0,3.781,3.781,3.781,3.781A14.836,14.836,0,0,0,37,8.563Z" transform="translate(-9.774 -1)" fill="#cb3541"/>
      <path id="Path_25833" data-name="Path 25833" d="M37,9.781A14.836,14.836,0,0,1,46.831,6s3.781,0,3.781,3.025a2.222,2.222,0,0,1-2.269,2.269H37Z" transform="translate(-9.774 -2.219)" fill="#e03e3e"/>
      <path id="Path_25834" data-name="Path 25834" d="M25,25H35.588V53.738H25Z" transform="translate(-6.85 -6.85)" fill="#cb3541"/>
      <path id="Path_25835" data-name="Path 25835" d="M36.1,13v9.075H24V13H36.1Z" transform="translate(-6.606 -3.925)" fill="#ff6161"/>
      <path id="Path_25836" data-name="Path 25836" d="M54.383,39.531c.159.718,1.792,1.286,1.792,2.057s-1.634,1.339-1.792,2.057c-.166.741,1.059,1.981.749,2.647-.325.681-2.034.469-2.5,1.059s.129,2.246-.446,2.715-2.027-.484-2.692-.151c-.65.325-.832,2.08-1.55,2.246-.7.166-1.611-1.331-2.36-1.331s-1.656,1.5-2.36,1.331c-.718-.166-.9-1.921-1.558-2.246s-2.118.62-2.685.151.008-2.133-.454-2.715-2.163-.378-2.488-1.059c-.31-.666.915-1.906.749-2.647C36.634,42.927,35,42.36,35,41.588s1.634-1.339,1.792-2.057c.166-.741-1.059-1.981-.749-2.647.325-.681,2.034-.469,2.5-1.059s-.129-2.246.446-2.715,2.027.484,2.692.151c.65-.325.832-2.08,1.55-2.246.7-.166,1.611,1.331,2.36,1.331s1.656-1.5,2.36-1.331c.718.166.9,1.921,1.558,2.246s2.118-.62,2.685-.151-.008,2.133.454,2.715,2.163.378,2.488,1.059C55.442,37.55,54.217,38.79,54.383,39.531Z" transform="translate(-9.287 -8.313)" fill="#cb3541"/>
      <path id="Path_25837" data-name="Path 25837" d="M54.638,42.319c0,.605-1.286,1.052-1.409,1.616-.129.584.832,1.556.586,2.083s-1.6.368-1.956.827.1,1.768-.353,2.136-1.588-.378-2.112-.12-.655,1.635-1.224,1.767c-.551.129-1.262-1.05-1.851-1.05s-1.3,1.179-1.851,1.05c-.569-.132-.71-1.513-1.224-1.767s-1.664.487-2.112.12.006-1.675-.354-2.136-1.7-.29-1.956-.827.716-1.5.587-2.082C39.286,43.37,38,42.924,38,42.319s1.286-1.052,1.409-1.616c.129-.584-.832-1.556-.586-2.083s1.6-.368,1.956-.827-.1-1.768.353-2.136,1.588.378,2.112.12.655-1.635,1.224-1.767c.551-.129,1.262,1.05,1.851,1.05s1.3-1.179,1.851-1.05c.569.132.71,1.513,1.224,1.767s1.664-.487,2.112-.12-.006,1.675.354,2.136,1.7.293,1.956.827-.716,1.5-.587,2.082C53.352,41.268,54.638,41.714,54.638,42.319Z" transform="translate(-10.018 -9.043)" fill="#ff6161"/>
      <path id="Path_25838" data-name="Path 25838" d="M51.269,51.538a2.269,2.269,0,1,1,2.269-2.269A2.269,2.269,0,0,1,51.269,51.538Zm0-3.025a.756.756,0,1,0,.756.756A.756.756,0,0,0,51.269,48.513Z" transform="translate(-12.699 -12.212)" fill="#fbfbfb"/>
      <path id="Path_25839" data-name="Path 25839" d="M45.269,41.538a2.269,2.269,0,1,1,2.269-2.269A2.269,2.269,0,0,1,45.269,41.538Zm0-3.025a.756.756,0,1,0,.756.756A.756.756,0,0,0,45.269,38.513Z" transform="translate(-11.237 -9.774)" fill="#fbfbfb"/>
      <path id="Path_25840" data-name="Path 25840" d="M43.756,48.075a.756.756,0,0,1-.535-1.291l7.563-7.563a.756.756,0,1,1,1.069,1.069l-7.563,7.563A.756.756,0,0,1,43.756,48.075Z" transform="translate(-11.237 -10.262)" fill="#fbfbfb"/>
      <path id="Path_25841" data-name="Path 25841" d="M53.369,28.025V25H39v3.025Z" transform="translate(-10.262 -6.85)" fill="#e68c15"/>
      <path id="Path_25842" data-name="Path 25842" d="M50.344,58.025H39V61.05H50.344a3.025,3.025,0,0,0,3.025-3.025V55A3.025,3.025,0,0,1,50.344,58.025Z" transform="translate(-10.262 -14.161)" fill="#e68c15"/>
      <path id="Path_25843" data-name="Path 25843" d="M9.781,37.1V31.05a3.025,3.025,0,0,1,3.025-3.025h7.563V25H6V50.713a3.025,3.025,0,0,0,3.025,3.025H20.369V50.365A13.613,13.613,0,0,1,9.781,37.1Z" transform="translate(-2.219 -6.85)" fill="#e68c15"/>
      <path id="Path_25844" data-name="Path 25844" d="M28.025,58.888A13.652,13.652,0,0,1,25,58.539v3.374H35.588V58.888Z" transform="translate(-6.85 -15.024)" fill="#a81e29"/>
      <path id="Path_25845" data-name="Path 25845" d="M25,25H35.588v3.025H25Z" transform="translate(-6.85 -6.85)" fill="#a81e29"/>
      <path id="Path_25846" data-name="Path 25846" d="M8.941,18.294a2.647,2.647,0,1,1,0-5.294H2.513A1.517,1.517,0,0,0,1,14.513v6.05a1.517,1.517,0,0,0,1.513,1.513H18.394V18.294Z" transform="translate(-1 -3.925)" fill="#ffa930"/>
      <path id="Path_25847" data-name="Path 25847" d="M55.882,19.513H40v3.781H55.882a1.517,1.517,0,0,0,1.513-1.513V18A1.513,1.513,0,0,1,55.882,19.513Z" transform="translate(-10.506 -5.143)" fill="#ffa930"/>
      <path id="Path_25848" data-name="Path 25848" d="M24,20v3.781H36.1V20Z" transform="translate(-6.606 -5.631)" fill="#cb3541"/>
      <path id="Path_25849" data-name="Path 25849" d="M20.806,5.421S16.394,3.953,14.1,4.64a4.5,4.5,0,0,0-.1.781A14.836,14.836,0,0,1,23.831,9.2a10.193,10.193,0,0,0-1.777-5.578C22.057,4.581,21.782,5.421,20.806,5.421Z" transform="translate(-4.169 -1.64)" fill="#a81e29"/>
      <path id="Path_25850" data-name="Path 25850" d="M40.781,5.152c-1.255,0-1.351-1.389-1.188-2.631C37,4.637,37,8.933,37,8.933a14.836,14.836,0,0,1,9.831-3.781,4.565,4.565,0,0,0-.13-.933A18.069,18.069,0,0,0,40.781,5.152Z" transform="translate(-9.774 -1.371)" fill="#a81e29"/>
      <path id="Path_25851" data-name="Path 25851" d="M19.5,8.46a.762.762,0,0,1-.74.922H11.268A1.513,1.513,0,0,1,9.756,7.869V7.463A2.592,2.592,0,0,0,9,9.382a2.222,2.222,0,0,0,2.269,2.269H22.612V10.138a13.528,13.528,0,0,0-3.274-2.219,3.622,3.622,0,0,1,.157.541Z" transform="translate(-2.949 -2.575)" fill="#cb3541"/>
      <path id="Path_25852" data-name="Path 25852" d="M49.1,9.391H41.613a.762.762,0,0,1-.741-.922,3.545,3.545,0,0,1,.355-.969A14.163,14.163,0,0,0,37,10.147v1.513H48.344a2.222,2.222,0,0,0,2.269-2.269,2.962,2.962,0,0,0-.135-.893A1.513,1.513,0,0,1,49.1,9.391Z" transform="translate(-9.774 -2.584)" fill="#cb3541"/>
      <path id="Path_25853" data-name="Path 25853" d="M49.513,27.6V13H48V27.6a.97.97,0,0,0,1.513,0Z" transform="translate(-12.455 -3.925)" fill="#a81e29"/>
      <path id="Path_25854" data-name="Path 25854" d="M35.312,48.389c-.31-.666.915-1.906.749-2.647-.159-.718-1.792-1.286-1.792-2.057s1.634-1.339,1.792-2.057c.123-.547-.51-1.361-.727-2.025-.629.378-2,.287-2.291.89-.31.666.915,1.906.749,2.647C33.634,43.859,32,44.426,32,45.2s1.634,1.339,1.792,2.057c.166.741-1.059,1.981-.749,2.647.325.681,2.034.469,2.488,1.059s-.121,2.246.454,2.715c.284.234.79.113,1.308-.025V49.14c-.687-.231-1.734-.234-1.981-.752Z" transform="translate(-8.556 -10.409)" fill="#961b25"/>
      <g id="Group_56248" data-name="Group 56248" transform="translate(28.738 18.15)">
        <path id="Path_25855" data-name="Path 25855" d="M44.2,57.331c-.718-.166-.9-1.921-1.558-2.246s-2.118.62-2.685.151.008-2.133-.454-2.715A1.044,1.044,0,0,0,39,52.214v4.51a2.255,2.255,0,0,1,1.376-.126,1.531,1.531,0,0,1,.562.749c.29.62.529,1.39,1,1.5.7.166,1.611-1.331,2.36-1.331s1.656,1.5,2.36,1.331c.465-.107.706-.877.994-1.5a2.821,2.821,0,0,1,.275-.482c-.461-.386-.936-.864-1.361-.864C45.814,56,44.906,57.5,44.2,57.331Z" transform="translate(-39 -31.633)" fill="#e68c15"/>
        <path id="Path_25856" data-name="Path 25856" d="M54.543,55.948a1.134,1.134,0,0,0-.681.039c-.425.213-.651,1.03-.957,1.621.541.145,1.08.287,1.38.042C54.641,57.36,54.554,56.613,54.543,55.948Z" transform="translate(-42.389 -32.534)" fill="#e68c15"/>
        <path id="Path_25857" data-name="Path 25857" d="M43.407,33.749a.867.867,0,0,0,.284-.272c-.353-.294-.7-.535-1-.462-.249.057-.432.311-.594.625A2.118,2.118,0,0,0,43.407,33.749Z" transform="translate(-39.754 -26.951)" fill="#e68c15"/>
        <path id="Path_25858" data-name="Path 25858" d="M45.666,29.553a1.1,1.1,0,0,1,.847.338V25H45v5.319C45.179,29.939,45.378,29.619,45.666,29.553Z" transform="translate(-40.462 -25)" fill="#e68c15"/>
      </g>
      <path id="Path_25859" data-name="Path 25859" d="M38.489,35.771c-.517-.138-1.022-.257-1.308-.023-.4.323-.247,1.21-.262,1.919.436-.193,1.086-.248,1.57-.408Z" transform="translate(-9.751 -9.437)" fill="#961b25"/>
    </g>
  </g>
</svg>
