<svg xmlns="http://www.w3.org/2000/svg" width="70" height="70" viewBox="0 0 70 70">
  <g id="ds_total_users" transform="translate(-366 -184)">
    <g id="Group_3590" data-name="Group 3590">
      <circle id="Ellipse_2" data-name="Ellipse 2" cx="35" cy="35" r="35" transform="translate(366 184)" fill="#fff"/>
      <g id="Group_230250" data-name="Group 230250" transform="translate(382 196.653)">
        <path id="Path_123549" data-name="Path 123549" d="M22.931,11.837a6.9,6.9,0,0,1,3.213,5.13,5.571,5.571,0,1,0-3.213-5.13ZM19.28,23.248a5.573,5.573,0,1,0-5.574-5.573A5.573,5.573,0,0,0,19.28,23.248Zm2.364.38H16.915A7.144,7.144,0,0,0,9.78,30.764v5.783l.015.091.4.125a32.481,32.481,0,0,0,9.7,1.564,19.918,19.918,0,0,0,8.472-1.591l.372-.188h.04V30.764a7.142,7.142,0,0,0-7.134-7.136Zm9.22-5.753H26.172a6.868,6.868,0,0,1-2.12,4.784,8.479,8.479,0,0,1,6.056,8.114v1.782a19.2,19.2,0,0,0,7.479-1.571l.372-.189H38V25.009a7.144,7.144,0,0,0-7.135-7.135ZM9.5,17.495a5.536,5.536,0,0,0,2.964-.86,6.9,6.9,0,0,1,2.593-4.4c.006-.1.016-.208.016-.313A5.573,5.573,0,1,0,9.5,17.495Zm5.005,5.163A6.873,6.873,0,0,1,12.388,17.9c-.174-.013-.346-.027-.524-.027H7.136A7.144,7.144,0,0,0,0,25.009v5.784l.015.089.4.126a33.456,33.456,0,0,0,8.036,1.51V30.772A8.481,8.481,0,0,1,14.506,22.658Z" fill="#808832"/>
      </g>
    </g>
  </g>
</svg>
