<svg xmlns="http://www.w3.org/2000/svg" width="70" height="70" viewBox="0 0 70 70">
  <g id="ds_total_users" transform="translate(-366 -184)">
    <g id="Group_3590" data-name="Group 3590">
      <circle id="Ellipse_2" data-name="Ellipse 2" cx="35" cy="35" r="35" transform="translate(366 184)" fill="#fff"/>
      <g id="Group_230319" data-name="Group 230319" transform="translate(381 200)">
        <ellipse id="Ellipse_13464" data-name="Ellipse 13464" cx="8.906" cy="3.711" rx="8.906" ry="3.711" transform="translate(11.02 21.672)" fill="#6b6b6b"/>
        <path id="Path_318625" data-name="Path 318625" d="M19.926,35.774a19.153,19.153,0,0,1-7.154-1.258,9.451,9.451,0,0,1-1.752-.939v.712c0,2.049,3.987,3.711,8.906,3.711s8.906-1.661,8.906-3.711v-.712a9.455,9.455,0,0,1-1.752.939A19.153,19.153,0,0,1,19.926,35.774Zm0-4.453a19.153,19.153,0,0,1-7.154-1.258,9.451,9.451,0,0,1-1.752-.939v.712c0,2.049,3.987,3.711,8.906,3.711s8.906-1.661,8.906-3.711v-.712a9.456,9.456,0,0,1-1.752.939A19.153,19.153,0,0,1,19.926,31.321ZM18.812,19.473c0-.009,0-.018,0-.027,0-2.049-3.987-3.711-8.906-3.711S1,17.4,1,19.446c0,1.991,3.765,3.616,8.49,3.707A7,7,0,0,1,12.772,20.7,18.308,18.308,0,0,1,18.812,19.473ZM1,27.639v.712c0,1.892,3.4,3.454,7.793,3.682V29.809a18.306,18.306,0,0,1-6.041-1.231A9.46,9.46,0,0,1,1,27.639Zm7.793-2.283a18.307,18.307,0,0,1-6.041-1.231A9.458,9.458,0,0,1,1,23.186V23.9c0,1.892,3.4,3.454,7.793,3.682V25.457h0q0-.037,0-.075ZM15.473,6.68h1.113v5.566A1.113,1.113,0,0,0,17.7,13.36h4.453a1.113,1.113,0,0,0,1.113-1.113V6.68h1.113a1.113,1.113,0,0,0,.787-1.9L20.713.326a1.113,1.113,0,0,0-1.574,0L14.685,4.779a1.113,1.113,0,0,0,.787,1.9ZM2.113,8.164H3.227v4.082A1.113,1.113,0,0,0,4.34,13.36H8.793a1.113,1.113,0,0,0,1.113-1.113V8.164H11.02a1.113,1.113,0,0,0,.787-1.9L7.354,1.811a1.113,1.113,0,0,0-1.574,0L1.326,6.264a1.113,1.113,0,0,0,.787,1.9Zm26.719,0h1.113v4.082a1.113,1.113,0,0,0,1.113,1.113h4.453a1.113,1.113,0,0,0,1.113-1.113V8.164h1.113a1.113,1.113,0,0,0,.787-1.9L34.072,1.811a1.113,1.113,0,0,0-1.574,0L28.045,6.264a1.113,1.113,0,0,0,.787,1.9Zm10.02,11.281c0-2.049-3.987-3.711-8.906-3.711s-8.906,1.661-8.906,3.711c0,.009,0,.018,0,.027A18.307,18.307,0,0,1,27.08,20.7a7,7,0,0,1,3.282,2.449C35.087,23.062,38.852,21.437,38.852,19.446ZM31.059,29.809v2.225c4.393-.228,7.793-1.79,7.793-3.682v-.712a9.456,9.456,0,0,1-1.752.939A18.307,18.307,0,0,1,31.059,29.809Zm0-4.453v.027c0,.024,0,.049,0,.075h0v2.124c4.393-.228,7.793-1.79,7.793-3.682v-.712a9.456,9.456,0,0,1-1.752.939A18.308,18.308,0,0,1,31.058,25.356Z" fill="#6b6b6b"/>
      </g>
    </g>
  </g>
</svg>
