<svg xmlns="http://www.w3.org/2000/svg" width="70" height="70" viewBox="0 0 70 70">
  <g id="ds_total_users" transform="translate(-366 -184.5)">
    <g id="Group_3590" data-name="Group 3590">
      <circle id="Ellipse_2" data-name="Ellipse 2" cx="35" cy="35" r="35" transform="translate(366 184.5)" fill="#fff"/>
      <g id="Group_230311" data-name="Group 230311" transform="translate(376 195.5)">
        <path id="Path_318624" data-name="Path 318624" d="M6,17.692V15.5a6.585,6.585,0,0,1,6.577-6.577h2.192v2.192a2.923,2.923,0,1,0,5.846,0V8.923h8.769v2.192a2.923,2.923,0,1,0,5.846,0V8.923h2.192A6.585,6.585,0,0,1,44,15.5v2.192Zm10.231-6.577a1.462,1.462,0,0,0,2.923,0V7.462a1.462,1.462,0,1,0-2.923,0ZM30.846,7.462v3.654a1.462,1.462,0,1,0,2.923,0V7.462a1.462,1.462,0,1,0-2.923,0ZM44,19.154V34.5a6.585,6.585,0,0,1-6.577,6.577H12.577A6.585,6.585,0,0,1,6,34.5V19.154ZM30.34,27.418H27.322l-.934-2.87a1.462,1.462,0,0,0-2.777,0l-.932,2.87H19.66a1.462,1.462,0,0,0-.859,2.644l2.441,1.774-.932,2.87a1.462,1.462,0,0,0,2.249,1.634L25,34.566l2.441,1.774a1.462,1.462,0,0,0,2.249-1.634l-.932-2.87L31.2,30.062a1.462,1.462,0,0,0-.859-2.644Z" fill="#b61c1c"/>
      </g>
    </g>
  </g>
</svg>
