<svg xmlns="http://www.w3.org/2000/svg" width="26" height="23.492" viewBox="0 0 26 23.492">
  <g id="eligibility" transform="translate(-11.855 -44.8)">
    <path id="Path_282304" data-name="Path 282304" d="M30.633,281.976H13.987a2.13,2.13,0,0,1-2.029-2.78l1.752-6.474a3.2,3.2,0,0,1,4.2-2,12.638,12.638,0,0,0,8.786,0,3.2,3.2,0,0,1,4.207,2l1.752,6.474A2.124,2.124,0,0,1,30.633,281.976Z" transform="translate(0 -213.683)" fill="#9f9f9f"/>
    <circle id="Ellipse_607" data-name="Ellipse 607" cx="5.49" cy="5.49" r="5.49" transform="translate(16.82 44.8)" fill="#9f9f9f"/>
    <path id="Path_282305" data-name="Path 282305" d="M350.917,132.406a1.141,1.141,0,0,0-1.608,0l-3.472,3.472-1.022-1.022a1.137,1.137,0,0,0-1.608,1.608l1.826,1.826a1.141,1.141,0,0,0,1.608,0l4.276-4.276A1.141,1.141,0,0,0,350.917,132.406Z" transform="translate(-313.394 -82.628)" fill="#9f9f9f"/>
  </g>
</svg>
