<svg xmlns="http://www.w3.org/2000/svg" width="25.593" height="26" viewBox="0 0 25.593 26">
  <g id="event_type" transform="translate(-0.977)">
    <path id="Path_282302" data-name="Path 282302" d="M40.575,57.024l-.4,2.369a.864.864,0,0,0,1.252.91l2.13-1.112,2.13,1.112a.864.864,0,0,0,1.253-.91l-.4-2.369,1.715-1.683a.864.864,0,0,0-.478-1.473L45.4,53.516l-1.071-2.152a.865.865,0,0,0-1.549,0l-1.069,2.152-2.377.352a.865.865,0,0,0-.478,1.473Z" transform="translate(-29.785 -40.285)" fill="#9f9f9f"/>
    <path id="Path_282303" data-name="Path 282303" d="M23.988,2.764H21.267V1.254A1.254,1.254,0,0,0,20.012,0h-.2a1.254,1.254,0,0,0-1.254,1.254v1.51h-9.6V1.254A1.254,1.254,0,0,0,7.7,0H7.5A1.254,1.254,0,0,0,6.249,1.254v1.51H3.559A2.585,2.585,0,0,0,.977,5.346V23.418A2.585,2.585,0,0,0,3.559,26h20.43a2.585,2.585,0,0,0,2.582-2.582V5.346a2.585,2.585,0,0,0-2.582-2.582Zm-.337,20.317H3.9V9.013H23.651V23.081Z" transform="translate(0 0)" fill="#9f9f9f"/>
  </g>
</svg>
