<svg xmlns="http://www.w3.org/2000/svg" width="202.226" height="89.061" viewBox="0 0 202.226 89.061">
  <g id="logo_footer" transform="translate(-191.915 -13)">
    <g id="Group_55721" data-name="Group 55721" transform="translate(191.915 13)">
      <path id="Path_24624" data-name="Path 24624" d="M235.339,266.7c0-.681,0-1.155,0-1.63,0-5.415-.045-10.83.013-16.244.013-1.184-.345-1.467-1.491-1.462-10.653.042-21.307.025-31.961.025h-1.683a17.177,17.177,0,0,1,2.142-10.1,16.1,16.1,0,0,1,6.037-5.964,11.3,11.3,0,0,1,5.768-1.559c6.558.009,13.116-.132,19.674-.136,1.191,0,1.479-.376,1.467-1.508-.1-10.168-.379-20.341-.144-30.5a18.633,18.633,0,0,1,10.013-16.689,30.108,30.108,0,0,1,11.918-3.289v1.6q0,34.074.015,68.148a15.192,15.192,0,0,1-1.493,6.755,20.915,20.915,0,0,1-16,12.006C238.279,266.383,236.924,266.5,235.339,266.7Z" transform="translate(-174.024 -177.639)" fill="#e06f00"/>
      <path id="Path_24625" data-name="Path 24625" d="M123.519,266.828a23.673,23.673,0,0,1-8.006-1.348c-7.512-2.573-12.384-7.621-14.155-15.471a6.6,6.6,0,0,1-.132-1.439q-.009-34.852,0-69.706c0-.346.029-.691.045-1.032,10.531-.361,20.321,7.3,22.236,17.373a7.077,7.077,0,0,1,.053,1.315q-.017,34.391-.038,68.781C123.519,265.775,123.519,266.248,123.519,266.828Z" transform="translate(-101.221 -177.772)" fill="#e06f00"/>
    </g>
    <g id="Group_120943" data-name="Group 120943" transform="translate(297.723 24.367)">
      <g id="Group_120942" data-name="Group 120942">
        <path id="Path_24626" data-name="Path 24626" d="M278.064,582.455l-.548-2.972c.112-.138.166-.274.254-.3,4.915-1.488,7.012-5.81,6.793-10.359-.186-3.862-.022-7.742-.007-11.614a1.807,1.807,0,0,1,.148-.425h3.287v12.621h8.318c0-1.927-.028-3.813.007-5.7a13.31,13.31,0,0,1,2.1-7.494,8.283,8.283,0,0,1,7.373-3.921c2.525.046,5.051-.022,7.576.017a6.686,6.686,0,0,1,6.967,7.018c.016,1.178,0,2.357,0,3.535,0,5.295-3.026,8.9-8.273,9.757a25.73,25.73,0,0,1-4.012.329c-6.285.034-12.571.044-18.855-.011a1.788,1.788,0,0,0-2.032,1.434A11.8,11.8,0,0,1,278.064,582.455Zm23.113-24.089c2.032,0,3.914-.038,5.795.008a5.025,5.025,0,0,1,5.262,5.314c.019,1.762-.143,3.526-.223,5.285a5.106,5.106,0,0,0,4.837-5.289c0-1.568.023-3.137-.006-4.7a2.915,2.915,0,0,0-3.108-3.177c-2.968-.042-5.938-.048-8.906,0A3.963,3.963,0,0,0,301.177,558.366Zm-1.545,11.088c2.182,0,3.919.122,5.633-.027,3.08-.268,5-4.434,3.205-6.9a2.119,2.119,0,0,0-1.427-.644c-1.222-.092-2.46.035-3.683-.049a2.734,2.734,0,0,0-3.13,2.184A44.659,44.659,0,0,0,299.632,569.454Z" transform="translate(-223.921 -546.6)" fill="#e06f00"/>
        <path id="Path_24627" data-name="Path 24627" d="M135.23,563.678a9.228,9.228,0,0,1-2.377.856,49.8,49.8,0,0,1-7.56-.1c-4.09-.53-6.845-4.24-6.939-8.854a8.893,8.893,0,0,1,7.147-8.955,76.78,76.78,0,0,1,7.9-.437c.042-.5.11-1.3.186-2.186h3.393V547.2c0,3.983.022,7.967-.008,11.95-.01,1.384.46,2.145,1.97,1.956a21.076,21.076,0,0,0,3.311-.383c2.286-.673,3.026-1.806,3.027-4.186q0-7.49,0-14.979v-1.92h3.485v2.836c0,4.432-.182,8.873.045,13.294.308,5.984-3.974,8.484-8.461,8.769C138.487,564.651,136.488,565,135.23,563.678ZM133.5,561c0-3.055.078-5.96-.053-8.856-.034-.76-.653-2.091-1.109-2.138-2.849-.3-5.839-1.008-8.411.992a5.577,5.577,0,0,0-1.984,5.885c.382,1.881,1.31,3.783,3.327,4.033A66.742,66.742,0,0,0,133.5,561Z" transform="translate(-118.353 -538.203)" fill="#e06f00"/>
        <path id="Path_24628" data-name="Path 24628" d="M225.974,587.1c-.157-.172-.281-.244-.3-.337-.157-.871-.3-1.746-.463-2.761a9.381,9.381,0,0,0,6.944-7.936c-.71.31-1.182.505-1.644.721a9.109,9.109,0,1,1-6.48-16.97c5.307-1.5,10.756,1.649,11.372,7.131a40.8,40.8,0,0,1-.4,11.644C234.2,583.1,230.563,586.079,225.974,587.1Zm.632-12.871a5.669,5.669,0,1,0-5.658-5.585A5.58,5.58,0,0,0,226.606,574.23Z" transform="translate(-184.133 -551.345)" fill="#e06f00"/>
        <path id="Path_24629" data-name="Path 24629" d="M124.19,540.853a2.73,2.73,0,0,1-.215-5.455,2.9,2.9,0,0,1,2.88,2.7A2.949,2.949,0,0,1,124.19,540.853Z" transform="translate(-120.368 -535.391)" fill="#e06f00"/>
        <path id="Path_24630" data-name="Path 24630" d="M150.849,538.161a2.734,2.734,0,0,1-5.467,0,2.734,2.734,0,1,1,5.467,0Z" transform="translate(-136.281 -535.388)" fill="#e06f00"/>
      </g>
      <text id="لأننا_نفهم_الرياضة" data-name="لأننا نفهم الرياضة" transform="translate(45 52.536)" fill="#e06f00" font-size="12" font-family="Almarai-Bold, Almarai" font-weight="700"><tspan x="-44" y="0">لأننا نفهم الرياضة</tspan></text>
    </g>
  </g>
</svg>
