<svg xmlns="http://www.w3.org/2000/svg" width="149.138" height="62.404" viewBox="0 0 149.138 62.404">
  <g id="logo_header" transform="translate(-191.915 -13)">
    <g id="Group_55721" data-name="Group 55721" transform="translate(191.915 13)">
      <path id="Path_24624" data-name="Path 24624" d="M224.81,240.043c0-.477,0-.809,0-1.142,0-3.794-.032-7.588.009-11.382.009-.83-.242-1.028-1.045-1.024-7.465.03-14.93.017-22.394.017H200.2a12.036,12.036,0,0,1,1.5-7.078,11.28,11.28,0,0,1,4.23-4.179,7.917,7.917,0,0,1,4.042-1.092c4.6.007,9.19-.093,13.786-.1.834,0,1.036-.263,1.028-1.057-.072-7.124-.266-14.253-.1-21.373a13.056,13.056,0,0,1,7.016-11.694,21.1,21.1,0,0,1,8.351-2.3v1.12q0,23.875.011,47.75a10.645,10.645,0,0,1-1.046,4.733,14.655,14.655,0,0,1-11.213,8.413C226.87,239.821,225.921,239.9,224.81,240.043Z" transform="translate(-181.848 -177.639)" fill="#fff"/>
      <path id="Path_24625" data-name="Path 24625" d="M116.845,240.187a16.588,16.588,0,0,1-5.61-.945c-5.264-1.8-8.678-5.34-9.918-10.84a4.626,4.626,0,0,1-.092-1.008q-.006-24.421,0-48.842c0-.242.021-.484.031-.723A15.53,15.53,0,0,1,116.835,190a4.959,4.959,0,0,1,.037.922q-.012,24.1-.027,48.194C116.845,239.449,116.845,239.78,116.845,240.187Z" transform="translate(-101.221 -177.786)" fill="#fff"/>
    </g>
    <g id="Group_120943" data-name="Group 120943" transform="translate(266.053 20.965)">
      <g id="Group_120942" data-name="Group 120942">
        <path id="Path_24626" data-name="Path 24626" d="M277.9,573.427l-.384-2.082c.079-.1.117-.192.178-.21,3.444-1.042,4.913-4.071,4.76-7.258-.13-2.706-.015-5.425,0-8.137a1.263,1.263,0,0,1,.1-.3h2.3v8.843h5.828c0-1.35-.02-2.671,0-3.992a9.326,9.326,0,0,1,1.471-5.251,5.8,5.8,0,0,1,5.166-2.748c1.769.032,3.539-.015,5.309.012a4.684,4.684,0,0,1,4.881,4.917c.011.826,0,1.651,0,2.477a6.467,6.467,0,0,1-5.8,6.837,18.027,18.027,0,0,1-2.811.231c-4.4.024-8.808.031-13.212-.008a1.253,1.253,0,0,0-1.424,1A8.266,8.266,0,0,1,277.9,573.427Zm16.2-16.879c1.424,0,2.743-.027,4.06.006a3.521,3.521,0,0,1,3.687,3.723c.013,1.235-.1,2.471-.156,3.7a3.578,3.578,0,0,0,3.389-3.706c0-1.1.016-2.2,0-3.3a2.042,2.042,0,0,0-2.178-2.226c-2.08-.029-4.161-.034-6.24,0A2.777,2.777,0,0,0,294.095,556.548Zm-1.083,7.769c1.529,0,2.746.086,3.947-.019a3.231,3.231,0,0,0,2.246-4.835,1.485,1.485,0,0,0-1-.451c-.856-.065-1.724.024-2.581-.034a1.915,1.915,0,0,0-2.193,1.53A31.293,31.293,0,0,0,293.012,564.317Z" transform="translate(-239.963 -548.304)" fill="#fff"/>
        <path id="Path_24627" data-name="Path 24627" d="M130.178,556.481a6.467,6.467,0,0,1-1.665.6,34.894,34.894,0,0,1-5.3-.07c-2.866-.371-4.8-2.971-4.862-6.2a6.231,6.231,0,0,1,5.008-6.275,53.816,53.816,0,0,1,5.536-.306c.029-.347.077-.908.13-1.531h2.378v2.237c0,2.791.015,5.582-.006,8.373-.007.969.322,1.5,1.38,1.371a14.77,14.77,0,0,0,2.32-.268c1.6-.471,2.12-1.266,2.121-2.933q0-5.248,0-10.5v-1.345h2.442v1.987c0,3.105-.128,6.218.031,9.315.216,4.193-2.784,5.945-5.929,6.144C132.461,557.162,131.06,557.408,130.178,556.481Zm-1.216-1.873c0-2.141.055-4.176-.037-6.206-.024-.533-.457-1.465-.777-1.5-2-.207-4.091-.706-5.894.7a3.907,3.907,0,0,0-1.39,4.123c.267,1.318.918,2.651,2.331,2.826A46.755,46.755,0,0,0,128.963,554.608Z" transform="translate(-118.353 -538.631)" fill="#fff"/>
        <path id="Path_24628" data-name="Path 24628" d="M223.446,578.823c-.11-.12-.2-.171-.208-.236-.11-.61-.207-1.223-.324-1.935a6.573,6.573,0,0,0,4.866-5.561c-.5.217-.828.354-1.152.5a6.383,6.383,0,1,1-4.54-11.89,6.11,6.11,0,0,1,7.968,5,28.585,28.585,0,0,1-.278,8.159C229.207,576.022,226.662,578.108,223.446,578.823Zm.443-9.018a3.972,3.972,0,1,0-3.965-3.913A3.91,3.91,0,0,0,223.888,569.8Z" transform="translate(-194.128 -553.769)" fill="#fff"/>
        <path id="Path_24629" data-name="Path 24629" d="M123.352,539.218a1.913,1.913,0,0,1-.151-3.822,2.035,2.035,0,0,1,2.018,1.89A2.066,2.066,0,0,1,123.352,539.218Z" transform="translate(-120.674 -535.392)" fill="#fff"/>
        <path id="Path_24630" data-name="Path 24630" d="M149.213,537.331a1.915,1.915,0,0,1-3.831,0,1.915,1.915,0,1,1,3.831,0Z" transform="translate(-139.005 -535.388)" fill="#fff"/>
      </g>
      <text id="لأننا_نفهم_الرياضة" data-name="لأننا نفهم الرياضة" transform="translate(37 38.702)" fill="#fff" font-size="10" font-family="Almarai-Bold, Almarai" font-weight="700"><tspan x="-37" y="0">لأننا نفهم الرياضة</tspan></text>
    </g>
  </g>
</svg>
