<svg id="subscription_diomond" xmlns="http://www.w3.org/2000/svg" width="91.705" height="91.705" viewBox="0 0 91.705 91.705">
  <g id="Group_56237" data-name="Group 56237" transform="translate(0)">
    <g id="Group_56236" data-name="Group 56236" transform="translate(0 21.761)">
      <path id="Path_25814" data-name="Path 25814" d="M2.739,250.337,0,251.5a2.678,2.678,0,0,0,.788,1.9l43.174,43.023a2.69,2.69,0,0,0,3.789,0l43.167-43.05a2.68,2.68,0,0,0,.787-1.9l-2.382-1.137H60.672L44.6,255.525l-13.593-5.188H2.739Z" transform="translate(0 -227.26)" fill="#ffb739"/>
      <path id="Path_25815" data-name="Path 25815" d="M301.852,251.475a2.673,2.673,0,0,1-.787,1.9L257.9,296.423a3.046,3.046,0,0,1-1.9.78V255.12l14.819-4.784h28.651Z" transform="translate(-210.147 -227.26)" fill="#ff9441"/>
      <path id="Path_25816" data-name="Path 25816" d="M173.119,250.337,187.964,297.2l14.819-46.866Z" transform="translate(-142.111 -227.26)" fill="#ff9441"/>
      <path id="Path_25817" data-name="Path 25817" d="M270.819,250.337,256,297.2V250.337Z" transform="translate(-210.147 -227.26)" fill="#ff7149"/>
      <path id="Path_25818" data-name="Path 25818" d="M91.255,144.217l-14.37-21.53a2.681,2.681,0,0,0-.75-.746l-1.3.625-26.494.165-2.486-1.239-2.009,1.267-26.435.165-1.845-.981a2.679,2.679,0,0,0-.747.745L.449,144.246A2.673,2.673,0,0,0,0,145.733l91.705-.024A2.676,2.676,0,0,0,91.255,144.217Z" transform="translate(0 -121.494)" fill="#ffd17e"/>
      <path id="Path_25819" data-name="Path 25819" d="M301.852,145.709,256,145.722V121.494l2.487,1.238,26.494-.165,1.3-.626a2.707,2.707,0,0,1,.75.746l14.37,21.53A2.666,2.666,0,0,1,301.852,145.709Z" transform="translate(-210.147 -121.494)" fill="#ffb739"/>
      <path id="Path_25820" data-name="Path 25820" d="M88.385,121.494a2.68,2.68,0,0,0-1.486.45l15.915,23.78h0l14.37-24.23Z" transform="translate(-71.334 -121.494)" fill="#ffb739"/>
      <path id="Path_25821" data-name="Path 25821" d="M270.372,145.718l15.906-23.775a2.681,2.681,0,0,0-1.481-.447H256l14.366,24.223h.011Z" transform="translate(-210.143 -121.495)" fill="#ff9441"/>
    </g>
    <path id="Path_25822" data-name="Path 25822" d="M54.823,311.676a8.154,8.154,0,0,1-8.145-8.145,2.687,2.687,0,1,0-5.373,0,8.155,8.155,0,0,1-8.145,8.145,2.687,2.687,0,1,0,0,5.373,8.154,8.154,0,0,1,8.145,8.145,2.687,2.687,0,1,0,5.373,0,8.155,8.155,0,0,1,8.145-8.145,2.687,2.687,0,1,0,0-5.373Z" transform="translate(-25.015 -246.959)" fill="#ffd17e"/>
    <path id="Path_25823" data-name="Path 25823" d="M284.729,10.832a8.154,8.154,0,0,1-8.145-8.145,2.687,2.687,0,0,0-5.373,0,8.154,8.154,0,0,1-8.145,8.145,2.687,2.687,0,0,0,0,5.373,8.154,8.154,0,0,1,8.145,8.145,2.687,2.687,0,0,0,5.373,0,8.154,8.154,0,0,1,8.145-8.145,2.687,2.687,0,1,0,0-5.373Z" transform="translate(-213.742)" fill="#ffb739"/>
  </g>
</svg>
