<svg xmlns="http://www.w3.org/2000/svg" width="27" height="27" viewBox="0 0 27 27">
  <path id="user_pic_placeholder" d="M13.5.563A13.5,13.5,0,1,0,27,14.063,13.5,13.5,0,0,0,13.5.563Zm0,5.226a4.79,4.79,0,1,1-4.79,4.79A4.79,4.79,0,0,1,13.5,5.788Zm0,18.726A10.431,10.431,0,0,1,5.525,20.8a6.069,6.069,0,0,1,5.362-3.255,1.332,1.332,0,0,1,.386.06,7.207,7.207,0,0,0,2.226.376,7.18,7.18,0,0,0,2.226-.376,1.332,1.332,0,0,1,.386-.06A6.069,6.069,0,0,1,21.475,20.8,10.431,10.431,0,0,1,13.5,24.514Z" transform="translate(0 -0.563)" fill="#c24d00" opacity="0"/>
</svg>
