<svg xmlns="http://www.w3.org/2000/svg" width="22.145" height="26" viewBox="0 0 22.145 26">
  <path id="user_pic_placeholder" d="M16.6,5.788a6.651,6.651,0,1,1-6.651,6.651A6.651,6.651,0,0,1,16.6,5.788Zm0,26A14.483,14.483,0,0,1,5.525,26.634a8.427,8.427,0,0,1,7.445-4.52,1.849,1.849,0,0,1,.537.083,10.007,10.007,0,0,0,3.091.522,9.969,9.969,0,0,0,3.091-.522,1.849,1.849,0,0,1,.537-.083,8.427,8.427,0,0,1,7.445,4.52A14.483,14.483,0,0,1,16.6,31.788Z" transform="translate(-5.525 -5.788)" fill="#9f9f9f"/>
</svg>
