<svg id="vuesax_outline_danger" data-name="vuesax/outline/danger" xmlns="http://www.w3.org/2000/svg" width="61.005" height="61.005" viewBox="0 0 61.005 61.005">
  <g id="danger">
    <path id="Vector" d="M61.005,0H0V61.005H61.005Z" fill="#fff" opacity="0"/>
    <g id="Group_120626" data-name="Group 120626" transform="translate(5.464 5.471)">
      <g id="Group_120626-2" data-name="Group 120626">
        <path id="Path_123457" data-name="Path 123457" d="M15,23.576a1.746,1.746,0,0,1-1.234-.512L8.129,17.429A1.745,1.745,0,1,1,10.6,14.961l4.4,4.4L25.011,9.349a1.745,1.745,0,1,1,2.468,2.468L16.232,23.064A1.746,1.746,0,0,1,15,23.576Z" transform="translate(7.204 8.837)" fill="#e06f00"/>
        <path id="Path_123458" data-name="Path 123458" d="M26.275,51.313A6.26,6.26,0,0,1,22.2,49.846l-3.679-3.167a3.57,3.57,0,0,0-1.793-.652H12.723a6.24,6.24,0,0,1-6.24-6.24V35.805a3.49,3.49,0,0,0-.652-1.77l-3.144-3.7a6.415,6.415,0,0,1,0-8.08l3.144-3.7a3.49,3.49,0,0,0,.652-1.77V12.776a6.241,6.241,0,0,1,6.24-6.24h4.028a3.8,3.8,0,0,0,1.793-.652l3.679-3.167a6.361,6.361,0,0,1,8.127,0l3.679,3.167a3.57,3.57,0,0,0,1.793.652H39.78a6.241,6.241,0,0,1,6.24,6.24v3.958a3.6,3.6,0,0,0,.675,1.793l3.167,3.679a6.361,6.361,0,0,1,0,8.127L46.7,34.012a3.6,3.6,0,0,0-.675,1.793v3.958A6.241,6.241,0,0,1,39.78,46H35.822a3.8,3.8,0,0,0-1.793.652L30.35,49.823a6.16,6.16,0,0,1-4.075,1.49ZM12.723,10.029a2.753,2.753,0,0,0-2.748,2.748v3.982a6.849,6.849,0,0,1-1.49,4.028l-3.144,3.7a2.9,2.9,0,0,0,0,3.563l3.144,3.7a6.906,6.906,0,0,1,1.49,4.028v3.982a2.753,2.753,0,0,0,2.748,2.748h4.028a6.856,6.856,0,0,1,4.075,1.514l3.679,3.167a2.935,2.935,0,0,0,3.586,0l3.679-3.167a7.01,7.01,0,0,1,4.075-1.514H39.8a2.753,2.753,0,0,0,2.748-2.748V35.805a6.856,6.856,0,0,1,1.514-4.075l3.167-3.679a2.935,2.935,0,0,0,0-3.586l-3.167-3.679a6.856,6.856,0,0,1-1.514-4.075V12.776A2.753,2.753,0,0,0,39.8,10.029H35.845A6.856,6.856,0,0,1,31.77,8.515L28.091,5.348a2.935,2.935,0,0,0-3.586,0l-3.679,3.19a7.044,7.044,0,0,1-4.075,1.49Z" transform="translate(-1.255 -1.25)" fill="#e06f00"/>
      </g>
    </g>
  </g>
</svg>
