<svg id="vuesax_twotone_card-tick" data-name="vuesax/twotone/card-tick" xmlns="http://www.w3.org/2000/svg" width="24" height="24" viewBox="0 0 24 24">
  <g id="card-tick">
    <path id="Vector" d="M0,0H20" transform="translate(2 10)" fill="none" stroke="#e06f00" stroke-linecap="round" stroke-linejoin="round" stroke-width="1.5"/>
    <path id="Vector-2" data-name="Vector" d="M9.56,16.99H4.45C.9,16.99,0,16.11,0,12.6V4.38C0,1.2.74.18,3.53.02,3.81.01,4.12,0,4.45,0H15.56c3.55,0,4.45.88,4.45,4.39V8.8" transform="translate(1.99 3.51)" fill="none" stroke="#e06f00" stroke-linecap="round" stroke-linejoin="round" stroke-width="1.5"/>
    <path id="Vector-3" data-name="Vector" d="M0,0H4" transform="translate(6 16)" fill="none" stroke="#e06f00" stroke-linecap="round" stroke-linejoin="round" stroke-width="1.5" opacity="0.4"/>
    <path id="Vector-4" data-name="Vector" d="M8,4a3.921,3.921,0,0,1-.58,2.06,3.985,3.985,0,0,1-6.84,0A3.921,3.921,0,0,1,0,4,4,4,0,0,1,8,4Z" transform="translate(14 14)" fill="none" stroke="#e06f00" stroke-linecap="round" stroke-linejoin="round" stroke-width="1.5" opacity="0.4"/>
    <path id="Vector-5" data-name="Vector" d="M0,.98l.99.99L3.12,0" transform="translate(16.44 17.02)" fill="none" stroke="#e06f00" stroke-linecap="round" stroke-linejoin="round" stroke-width="1.5" opacity="0.4"/>
    <path id="Vector-6" data-name="Vector" d="M0,0H24V24H0Z" fill="none" opacity="0"/>
  </g>
</svg>
